<svg xmlns="http://www.w3.org/2000/svg" viewBox="-50 -50 100 100">
  <rect
    fill="white"
    x="-50"
    y="-38"
    width="100"
    height="76"
    rx="15"
    ry="15"
  />
  <g fill="#e91e63" transform="scale(0.22)">
    <path
      transform="rotate(0)"
      d="M-84.1487,-15.8513 a22.4171,22.4171 0 1 0 0,31.7026 h168.2974 a22.4171,22.4171 0 1 0 0,-31.7026 Z"
    />
    <path
      transform="rotate(45)"
      d="M-84.1487,-15.8513 a22.4171,22.4171 0 1 0 0,31.7026 h168.2974 a22.4171,22.4171 0 1 0 0,-31.7026 Z"
    />
    <path
      transform="rotate(90)"
      d="M-84.1487,-15.8513 a22.4171,22.4171 0 1 0 0,31.7026 h168.2974 a22.4171,22.4171 0 1 0 0,-31.7026 Z"
    />
    <path
      transform="rotate(135)"
      d="M-84.1487,-15.8513 a22.4171,22.4171 0 1 0 0,31.7026 h168.2974 a22.4171,22.4171 0 1 0 0,-31.7026 Z"
    />
  </g>
</svg>
