<svg xmlns="http://www.w3.org/2000/svg" viewBox="-50 -50 100 100">
  <g fill="none" stroke="#ffffff" stroke-linecap="round">
    <path
      stroke-width="8"
      d="
        M -46 -18
        A 20 20 0 0 1 -25 -39
        M 46 -18
        A 20 20 0 0 0 25 -39
        M 46 18
        A 20 20 0 0 1 25 39
        M -46 18
        A 20 20 0 0 0 -25 39
      "
    />
    <g stroke-width="6">
      <g transform="rotate(0)">
        <path d="M 0 -23 L 0 23" />
        <circle cx="0" cy="-23" r="2" />
        <circle cx="0" cy="23" r="2" />
      </g>
      <g transform="rotate(45)">
        <path d="M 0 -23 L 0 23" />
        <circle cx="0" cy="-23" r="2" />
        <circle cx="0" cy="23" r="2" />
      </g>
      <g transform="rotate(90)">
        <path d="M 0 -23 L 0 23" />
        <circle cx="0" cy="-23" r="2" />
        <circle cx="0" cy="23" r="2" />
      </g>
      <g transform="rotate(135)">
        <path d="M 0 -23 L 0 23" />
        <circle cx="0" cy="-23" r="2" />
        <circle cx="0" cy="23" r="2" />
      </g>
    </g>
  </g>
</svg>
